# MagicaVoxel @ Ephtracy

# group
o 

# material
mtllib carro-1.mtl
usemtl palette

# normals
vn -1 0 0
vn 1 0 0
vn 0 0 1
vn 0 0 -1
vn 0 -1 0
vn 0 1 0

# texcoords
vt 0.115234 0.5
vt 0.841797 0.5
vt 0.970703 0.5

# verts
v -3.5 0.4 1.6
v -3.5 0.4 1
v -3.5 0.4 -0.3
v -3.5 0.4 -0.9
v -3.5 0.6 1.6
v -3.5 0.6 1.4
v -3.5 0.6 1
v -3.5 0.6 -0.3
v -3.5 0.6 -0.8
v -3.5 0.6 -0.9
v -3.5 0.8 1.4
v -3.5 0.8 1
v -3.5 0.8 -0.3
v -3.5 0.8 -0.8
v 3.3 0.9 1.6
v 3.3 0.9 1.5
v 3.3 0.9 -0.9
v 3.3 0.9 -1
v 3.3 1.2 1.6
v 3.3 1.2 1.5
v 3.3 1.2 -0.9
v 3.3 1.2 -1
v 3.7 0.9 1.5
v 3.7 0.9 1.3
v 3.7 0.9 -0.7
v 3.7 0.9 -0.9
v 3.7 1.2 1.5
v 3.7 1.2 1.3
v 3.7 1.2 -0.7
v 3.7 1.2 -0.9
v -3.2 0.4 1.6
v -3.2 0.4 1
v -3.2 0.4 -0.3
v -3.2 0.4 -0.9
v -3.2 0.6 1.6
v -3.2 0.6 1.4
v -3.2 0.6 1
v -3.2 0.6 -0.3
v -3.2 0.6 -0.8
v -3.2 0.6 -0.9
v -3.2 0.8 1.4
v -3.2 0.8 1
v -3.2 0.8 -0.3
v -3.2 0.8 -0.8
v 3.8 0.9 1.6
v 3.8 0.9 1.3
v 3.8 0.9 -0.7
v 3.8 0.9 -1
v 3.8 1.2 1.6
v 3.8 1.2 1.3
v 3.8 1.2 -0.7
v 3.8 1.2 -1
v -3.5 0.4 1.6
v -3.5 0.6 1.6
v -3.2 0.4 1.6
v -3.2 0.6 1.6
v 3.3 0.9 1.6
v 3.3 1.2 1.6
v 3.8 0.9 1.6
v 3.8 1.2 1.6
v -3.5 0.6 1.4
v -3.5 0.8 1.4
v -3.2 0.6 1.4
v -3.2 0.8 1.4
v -3.5 0.4 -0.3
v -3.5 0.6 -0.3
v -3.5 0.8 -0.3
v -3.2 0.4 -0.3
v -3.2 0.6 -0.3
v -3.2 0.8 -0.3
v 3.7 0.9 -0.7
v 3.7 1.2 -0.7
v 3.8 0.9 -0.7
v 3.8 1.2 -0.7
v 3.3 0.9 -0.9
v 3.3 1.2 -0.9
v 3.7 0.9 -0.9
v 3.7 1.2 -0.9
v 3.3 0.9 1.5
v 3.3 1.2 1.5
v 3.7 0.9 1.5
v 3.7 1.2 1.5
v 3.7 0.9 1.3
v 3.7 1.2 1.3
v 3.8 0.9 1.3
v 3.8 1.2 1.3
v -3.5 0.4 1
v -3.5 0.6 1
v -3.5 0.8 1
v -3.2 0.4 1
v -3.2 0.6 1
v -3.2 0.8 1
v -3.5 0.6 -0.8
v -3.5 0.8 -0.8
v -3.2 0.6 -0.8
v -3.2 0.8 -0.8
v -3.5 0.4 -0.9
v -3.5 0.6 -0.9
v -3.2 0.4 -0.9
v -3.2 0.6 -0.9
v 3.3 0.9 -1
v 3.3 1.2 -1
v 3.8 0.9 -1
v 3.8 1.2 -1
v -3.5 0.4 1.6
v -3.2 0.4 1.6
v -3.5 0.4 1
v -3.2 0.4 1
v -3.5 0.4 -0.3
v -3.2 0.4 -0.3
v -3.5 0.4 -0.9
v -3.2 0.4 -0.9
v 3.3 0.9 1.6
v 3.8 0.9 1.6
v 3.3 0.9 1.5
v 3.7 0.9 1.5
v 3.7 0.9 1.3
v 3.8 0.9 1.3
v 3.7 0.9 -0.7
v 3.8 0.9 -0.7
v 3.3 0.9 -0.9
v 3.7 0.9 -0.9
v 3.3 0.9 -1
v 3.8 0.9 -1
v -3.5 0.6 1.6
v -3.2 0.6 1.6
v -3.5 0.6 1.4
v -3.2 0.6 1.4
v -3.5 0.6 -0.8
v -3.2 0.6 -0.8
v -3.5 0.6 -0.9
v -3.2 0.6 -0.9
v -3.5 0.8 1.4
v -3.2 0.8 1.4
v -3.5 0.8 1
v -3.2 0.8 1
v -3.5 0.8 -0.3
v -3.2 0.8 -0.3
v -3.5 0.8 -0.8
v -3.2 0.8 -0.8
v 3.3 1.2 1.6
v 3.8 1.2 1.6
v 3.3 1.2 1.5
v 3.7 1.2 1.5
v 3.7 1.2 1.3
v 3.8 1.2 1.3
v 3.7 1.2 -0.7
v 3.8 1.2 -0.7
v 3.3 1.2 -0.9
v 3.7 1.2 -0.9
v 3.3 1.2 -1
v 3.8 1.2 -1

# faces
f 5/1/1 2/1/1 1/1/1
f 6/1/1 2/1/1 5/1/1
f 7/1/1 2/1/1 6/1/1
f 8/1/1 4/1/1 3/1/1
f 9/1/1 4/1/1 8/1/1
f 10/1/1 4/1/1 9/1/1
f 11/3/1 7/3/1 6/3/1
f 12/3/1 7/3/1 11/3/1
f 13/3/1 9/3/1 8/3/1
f 14/3/1 9/3/1 13/3/1
f 19/2/1 16/2/1 15/2/1
f 20/2/1 16/2/1 19/2/1
f 21/2/1 18/2/1 17/2/1
f 22/2/1 18/2/1 21/2/1
f 27/2/1 24/2/1 23/2/1
f 28/2/1 24/2/1 27/2/1
f 29/2/1 26/2/1 25/2/1
f 30/2/1 26/2/1 29/2/1
f 31/1/2 32/1/2 35/1/2
f 35/1/2 32/1/2 36/1/2
f 36/1/2 32/1/2 37/1/2
f 33/1/2 34/1/2 38/1/2
f 38/1/2 34/1/2 39/1/2
f 39/1/2 34/1/2 40/1/2
f 36/3/2 37/3/2 41/3/2
f 41/3/2 37/3/2 42/3/2
f 38/3/2 39/3/2 43/3/2
f 43/3/2 39/3/2 44/3/2
f 45/2/2 46/2/2 49/2/2
f 49/2/2 46/2/2 50/2/2
f 47/2/2 48/2/2 51/2/2
f 51/2/2 48/2/2 52/2/2
f 55/1/3 54/1/3 53/1/3
f 56/1/3 54/1/3 55/1/3
f 59/2/3 58/2/3 57/2/3
f 60/2/3 58/2/3 59/2/3
f 63/3/3 62/3/3 61/3/3
f 64/3/3 62/3/3 63/3/3
f 68/1/3 66/1/3 65/1/3
f 69/3/3 67/3/3 66/3/3
f 69/1/3 66/1/3 68/1/3
f 70/3/3 67/3/3 69/3/3
f 73/2/3 72/2/3 71/2/3
f 74/2/3 72/2/3 73/2/3
f 77/2/3 76/2/3 75/2/3
f 78/2/3 76/2/3 77/2/3
f 79/2/4 80/2/4 81/2/4
f 81/2/4 80/2/4 82/2/4
f 83/2/4 84/2/4 85/2/4
f 85/2/4 84/2/4 86/2/4
f 87/1/4 88/1/4 90/1/4
f 88/3/4 89/3/4 91/3/4
f 90/1/4 88/1/4 91/1/4
f 91/3/4 89/3/4 92/3/4
f 93/3/4 94/3/4 95/3/4
f 95/3/4 94/3/4 96/3/4
f 97/1/4 98/1/4 99/1/4
f 99/1/4 98/1/4 100/1/4
f 101/2/4 102/2/4 103/2/4
f 103/2/4 102/2/4 104/2/4
f 107/1/5 106/1/5 105/1/5
f 108/1/5 106/1/5 107/1/5
f 111/1/5 110/1/5 109/1/5
f 112/1/5 110/1/5 111/1/5
f 115/2/5 114/2/5 113/2/5
f 116/2/5 114/2/5 115/2/5
f 117/2/5 114/2/5 116/2/5
f 118/2/5 114/2/5 117/2/5
f 122/2/5 120/2/5 119/2/5
f 123/2/5 122/2/5 121/2/5
f 124/2/5 120/2/5 122/2/5
f 124/2/5 122/2/5 123/2/5
f 125/1/6 126/1/6 127/1/6
f 127/1/6 126/1/6 128/1/6
f 129/1/6 130/1/6 131/1/6
f 131/1/6 130/1/6 132/1/6
f 133/3/6 134/3/6 135/3/6
f 135/3/6 134/3/6 136/3/6
f 137/3/6 138/3/6 139/3/6
f 139/3/6 138/3/6 140/3/6
f 141/2/6 142/2/6 143/2/6
f 143/2/6 142/2/6 144/2/6
f 144/2/6 142/2/6 145/2/6
f 145/2/6 142/2/6 146/2/6
f 147/2/6 148/2/6 150/2/6
f 149/2/6 150/2/6 151/2/6
f 150/2/6 148/2/6 152/2/6
f 151/2/6 150/2/6 152/2/6
