# MagicaVoxel @ Ephtracy

# group
o 

# material
mtllib Teatro-0.mtl
usemtl palette

# normals
vn -1 0 0
vn 1 0 0
vn 0 0 1
vn 0 0 -1
vn 0 -1 0
vn 0 1 0

# texcoords
vt 0.0214844 0.5
vt 0.798828 0.5
vt 0.970703 0.5

# verts
v -0.4 5.7 0.0999999
v -0.4 5.7 -1.19209e-007
v -0.4 5.8 0.0999999
v -0.4 5.8 -1.19209e-007
v -0.4 5.9 0.2
v -0.4 5.9 0.0999999
v -0.4 5.9 -1.19209e-007
v -0.4 5.9 -0.1
v -0.4 6 0.2
v -0.4 6 0.0999999
v -0.4 6 -1.19209e-007
v -0.4 6 -0.1
v -0.4 6 -0.2
v -0.4 6 -0.3
v -0.4 6.1 0.0999999
v -0.4 6.1 -1.19209e-007
v -0.4 6.1 -0.2
v -0.4 6.1 -0.3
v -0.4 6.2 0.0999999
v -0.4 6.2 -1.19209e-007
v -0.4 6.3 0.4
v -0.4 6.3 0.3
v -0.4 6.3 -0.2
v -0.4 6.3 -0.3
v -0.4 6.4 0.4
v -0.4 6.4 0.3
v -0.4 6.4 -0.2
v -0.4 6.4 -0.3
v -0.3 5.6 0.4
v -0.3 5.6 0.3
v -0.3 5.6 -0.2
v -0.3 5.6 -0.3
v -0.3 5.7 0.5
v -0.3 5.7 0.4
v -0.3 5.7 0.3
v -0.3 5.7 0.0999999
v -0.3 5.7 -1.19209e-007
v -0.3 5.7 -0.2
v -0.3 5.7 -0.3
v -0.3 5.7 -0.4
v -0.3 5.8 0.5
v -0.3 5.8 0.4
v -0.3 5.8 0.0999999
v -0.3 5.8 -1.19209e-007
v -0.3 5.8 -0.3
v -0.3 5.8 -0.4
v -0.3 5.9 0.2
v -0.3 5.9 0.0999999
v -0.3 5.9 -1.19209e-007
v -0.3 5.9 -0.1
v -0.3 6 0.2
v -0.3 6 0.0999999
v -0.3 6 -1.19209e-007
v -0.3 6 -0.1
v -0.3 6 -0.2
v -0.3 6 -0.3
v -0.3 6.1 0.0999999
v -0.3 6.1 -1.19209e-007
v -0.3 6.1 -0.2
v -0.3 6.1 -0.3
v -0.3 6.2 0.0999999
v -0.3 6.2 -1.19209e-007
v -0.3 6.3 0.5
v -0.3 6.3 0.4
v -0.3 6.3 0.3
v -0.3 6.3 -0.2
v -0.3 6.3 -0.3
v -0.3 6.3 -0.4
v -0.3 6.4 0.5
v -0.3 6.4 0.4
v -0.3 6.4 0.3
v -0.3 6.4 -0.2
v -0.3 6.4 -0.3
v -0.3 6.4 -0.4
v -0.3 6.5 0.4
v -0.3 6.5 0.3
v -0.1 5.6 -1.19209e-007
v -0.1 5.6 -0.1
v -0.1 5.7 -1.19209e-007
v -0.1 5.7 -0.1
v -0.1 5.9 -0.3
v -0.1 5.9 -0.4
v -0.1 6 0.5
v -0.1 6 0.4
v -0.1 6 -0.3
v -0.1 6 -0.4
v -0.1 6.2 0.5
v -0.1 6.2 0.4
v -0.1 6.4 0.2
v -0.1 6.4 -0.1
v -0.1 7.1 0.2
v -0.1 7.1 -0.1
v 0 5.6 0.4
v 0 5.6 0.3
v 0 5.6 0.0999999
v 0 5.6 -1.19209e-007
v 0 5.7 0.4
v 0 5.7 0.3
v 0 5.7 0.0999999
v 0 5.7 -1.19209e-007
v 0 6 -0.3
v 0 6 -0.4
v 0 6.1 -0.3
v 0 6.1 -0.4
v 0 6.4 -0.2
v 0 6.4 -0.3
v 0 6.5 -0.2
v 0 6.5 -0.3
v 0.1 5.6 -1.19209e-007
v 0.1 5.6 -0.1
v 0.1 5.7 -1.19209e-007
v 0.1 5.7 -0.1
v 0.1 5.9 0.5
v 0.1 5.9 0.4
v 0.1 6 0.5
v 0.1 6 0.4
v 0.3 5.6 -0.2
v 0.3 5.6 -0.3
v 0.3 5.7 -0.2
v 0.3 5.7 -0.3
v 0.3 6 0.5
v 0.3 6 0.4
v 0.3 6.1 0.5
v 0.3 6.1 0.4
v 0.3 6.3 -0.3
v 0.3 6.3 -0.4
v 0.3 6.4 0.0999999
v 0.3 6.4 -1.19209e-007
v 0.3 6.4 -0.3
v 0.3 6.4 -0.4
v 0.3 6.5 0.0999999
v 0.3 6.5 -1.19209e-007
v -0.2 5.6 0.4
v -0.2 5.6 0.3
v -0.2 5.6 -0.2
v -0.2 5.6 -0.3
v -0.2 5.7 0.5
v -0.2 5.7 0.4
v -0.2 5.7 0.3
v -0.2 5.7 -0.2
v -0.2 5.7 -0.3
v -0.2 5.7 -0.4
v -0.2 5.8 0.5
v -0.2 5.8 0.4
v -0.2 5.8 -0.3
v -0.2 5.8 -0.4
v -0.2 6.3 0.5
v -0.2 6.3 0.4
v -0.2 6.3 -0.3
v -0.2 6.3 -0.4
v -0.2 6.4 0.5
v -0.2 6.4 0.4
v -0.2 6.4 0.3
v -0.2 6.4 -0.3
v -0.2 6.4 -0.4
v -0.2 6.5 0.4
v -0.2 6.5 0.3
v 0 5.6 -1.19209e-007
v 0 5.6 -0.1
v 0 5.7 -1.19209e-007
v 0 5.7 -0.1
v 0 5.9 -0.3
v 0 5.9 -0.4
v 0 6 0.5
v 0 6 0.4
v 0 6 -0.3
v 0 6 -0.4
v 0 6.2 0.5
v 0 6.2 0.4
v 0.1 5.6 0.4
v 0.1 5.6 0.3
v 0.1 5.6 0.0999999
v 0.1 5.6 -1.19209e-007
v 0.1 5.7 0.4
v 0.1 5.7 0.3
v 0.1 5.7 0.0999999
v 0.1 5.7 -1.19209e-007
v 0.1 6 -0.3
v 0.1 6 -0.4
v 0.1 6.1 -0.3
v 0.1 6.1 -0.4
v 0.1 6.4 -0.2
v 0.1 6.4 -0.3
v 0.1 6.5 -0.2
v 0.1 6.5 -0.3
v 0.2 5.6 -1.19209e-007
v 0.2 5.6 -0.1
v 0.2 5.7 -1.19209e-007
v 0.2 5.7 -0.1
v 0.2 5.9 0.5
v 0.2 5.9 0.4
v 0.2 6 0.5
v 0.2 6 0.4
v 0.2 6.4 0.2
v 0.2 6.4 -0.1
v 0.2 7.1 0.2
v 0.2 7.1 -0.1
v 0.4 5.6 -0.2
v 0.4 5.6 -0.3
v 0.4 5.7 0.3
v 0.4 5.7 -0.2
v 0.4 5.7 -0.3
v 0.4 5.8 0.4
v 0.4 5.8 0.3
v 0.4 6 0.5
v 0.4 6 0.4
v 0.4 6 0.0999999
v 0.4 6 -1.19209e-007
v 0.4 6 -0.2
v 0.4 6 -0.3
v 0.4 6.1 0.5
v 0.4 6.1 0.4
v 0.4 6.1 0.2
v 0.4 6.1 0.0999999
v 0.4 6.1 -1.19209e-007
v 0.4 6.1 -0.2
v 0.4 6.1 -0.3
v 0.4 6.2 0.2
v 0.4 6.2 0.0999999
v 0.4 6.3 0.4
v 0.4 6.3 0.3
v 0.4 6.3 -0.3
v 0.4 6.3 -0.4
v 0.4 6.4 0.3
v 0.4 6.4 0.0999999
v 0.4 6.4 -1.19209e-007
v 0.4 6.4 -0.3
v 0.4 6.4 -0.4
v 0.4 6.5 0.0999999
v 0.4 6.5 -1.19209e-007
v 0.5 5.7 0.4
v 0.5 5.7 0.3
v 0.5 5.8 0.4
v 0.5 5.8 0.3
v 0.5 6 0.0999999
v 0.5 6 -1.19209e-007
v 0.5 6 -0.2
v 0.5 6 -0.3
v 0.5 6.1 0.2
v 0.5 6.1 0.0999999
v 0.5 6.1 -1.19209e-007
v 0.5 6.1 -0.2
v 0.5 6.1 -0.3
v 0.5 6.2 0.2
v 0.5 6.2 0.0999999
v 0.5 6.3 0.4
v 0.5 6.3 0.3
v 0.5 6.4 0.4
v 0.5 6.4 0.3
v -0.3 5.7 0.5
v -0.3 5.8 0.5
v -0.3 6.3 0.5
v -0.3 6.4 0.5
v -0.2 5.7 0.5
v -0.2 5.8 0.5
v -0.2 6.3 0.5
v -0.2 6.4 0.5
v -0.1 6 0.5
v -0.1 6.2 0.5
v 0 6 0.5
v 0 6.2 0.5
v 0.1 5.9 0.5
v 0.1 6 0.5
v 0.2 5.9 0.5
v 0.2 6 0.5
v 0.3 6 0.5
v 0.3 6.1 0.5
v 0.4 6 0.5
v 0.4 6.1 0.5
v -0.4 6.3 0.4
v -0.4 6.4 0.4
v -0.3 5.6 0.4
v -0.3 5.7 0.4
v -0.3 5.8 0.4
v -0.3 6.3 0.4
v -0.3 6.4 0.4
v -0.3 6.5 0.4
v -0.2 5.6 0.4
v -0.2 5.7 0.4
v -0.2 5.8 0.4
v -0.2 6.3 0.4
v -0.2 6.4 0.4
v -0.2 6.5 0.4
v -0.1 6 0.4
v -0.1 6.2 0.4
v 0 5.6 0.4
v 0 5.7 0.4
v 0 6 0.4
v 0 6.2 0.4
v 0.1 5.6 0.4
v 0.1 5.7 0.4
v 0.1 5.9 0.4
v 0.1 6 0.4
v 0.2 5.9 0.4
v 0.2 6 0.4
v 0.3 6 0.4
v 0.3 6.1 0.4
v 0.4 5.7 0.4
v 0.4 5.8 0.4
v 0.4 6 0.4
v 0.4 6.1 0.4
v 0.4 6.3 0.4
v 0.4 6.4 0.4
v 0.5 5.7 0.4
v 0.5 5.8 0.4
v 0.5 6.3 0.4
v 0.5 6.4 0.4
v -0.4 5.9 0.2
v -0.4 6 0.2
v -0.3 5.9 0.2
v -0.3 6 0.2
v -0.1 6.4 0.2
v -0.1 7.1 0.2
v 0.2 6.4 0.2
v 0.2 7.1 0.2
v 0.4 6.1 0.2
v 0.4 6.2 0.2
v 0.5 6.1 0.2
v 0.5 6.2 0.2
v -0.4 5.7 0.0999999
v -0.4 5.8 0.0999999
v -0.4 6.1 0.0999999
v -0.4 6.2 0.0999999
v -0.3 5.7 0.0999999
v -0.3 5.8 0.0999999
v -0.3 6.1 0.0999999
v -0.3 6.2 0.0999999
v 0 5.6 0.0999999
v 0 5.7 0.0999999
v 0.1 5.6 0.0999999
v 0.1 5.7 0.0999999
v 0.3 6.4 0.0999999
v 0.3 6.5 0.0999999
v 0.4 6 0.0999999
v 0.4 6.1 0.0999999
v 0.4 6.4 0.0999999
v 0.4 6.5 0.0999999
v 0.5 6 0.0999999
v 0.5 6.1 0.0999999
v -0.4 5.9 -1.19209e-007
v -0.4 6 -1.19209e-007
v -0.3 5.9 -1.19209e-007
v -0.3 6 -1.19209e-007
v -0.1 5.6 -1.19209e-007
v -0.1 5.7 -1.19209e-007
v 0 5.6 -1.19209e-007
v 0 5.7 -1.19209e-007
v 0.1 5.6 -1.19209e-007
v 0.1 5.7 -1.19209e-007
v 0.2 5.6 -1.19209e-007
v 0.2 5.7 -1.19209e-007
v -0.4 6 -0.2
v -0.4 6.1 -0.2
v -0.4 6.3 -0.2
v -0.4 6.4 -0.2
v -0.3 5.6 -0.2
v -0.3 5.7 -0.2
v -0.3 6 -0.2
v -0.3 6.1 -0.2
v -0.3 6.3 -0.2
v -0.3 6.4 -0.2
v -0.2 5.6 -0.2
v -0.2 5.7 -0.2
v 0 6.4 -0.2
v 0 6.5 -0.2
v 0.1 6.4 -0.2
v 0.1 6.5 -0.2
v 0.3 5.6 -0.2
v 0.3 5.7 -0.2
v 0.4 5.6 -0.2
v 0.4 5.7 -0.2
v 0.4 6 -0.2
v 0.4 6.1 -0.2
v 0.5 6 -0.2
v 0.5 6.1 -0.2
v -0.4 6.3 0.3
v -0.4 6.4 0.3
v -0.3 5.6 0.3
v -0.3 5.7 0.3
v -0.3 6.3 0.3
v -0.3 6.4 0.3
v -0.3 6.5 0.3
v -0.2 5.6 0.3
v -0.2 5.7 0.3
v -0.2 6.4 0.3
v -0.2 6.5 0.3
v 0 5.6 0.3
v 0 5.7 0.3
v 0.1 5.6 0.3
v 0.1 5.7 0.3
v 0.4 5.7 0.3
v 0.4 5.8 0.3
v 0.4 6.3 0.3
v 0.4 6.4 0.3
v 0.5 5.7 0.3
v 0.5 5.8 0.3
v 0.5 6.3 0.3
v 0.5 6.4 0.3
v -0.4 5.9 0.0999999
v -0.4 6 0.0999999
v -0.3 5.9 0.0999999
v -0.3 6 0.0999999
v 0.4 6.1 0.0999999
v 0.4 6.2 0.0999999
v 0.5 6.1 0.0999999
v 0.5 6.2 0.0999999
v -0.4 5.7 -1.19209e-007
v -0.4 5.8 -1.19209e-007
v -0.4 6.1 -1.19209e-007
v -0.4 6.2 -1.19209e-007
v -0.3 5.7 -1.19209e-007
v -0.3 5.8 -1.19209e-007
v -0.3 6.1 -1.19209e-007
v -0.3 6.2 -1.19209e-007
v 0 5.6 -1.19209e-007
v 0 5.7 -1.19209e-007
v 0.1 5.6 -1.19209e-007
v 0.1 5.7 -1.19209e-007
v 0.3 6.4 -1.19209e-007
v 0.3 6.5 -1.19209e-007
v 0.4 6 -1.19209e-007
v 0.4 6.1 -1.19209e-007
v 0.4 6.4 -1.19209e-007
v 0.4 6.5 -1.19209e-007
v 0.5 6 -1.19209e-007
v 0.5 6.1 -1.19209e-007
v -0.4 5.9 -0.1
v -0.4 6 -0.1
v -0.3 5.9 -0.1
v -0.3 6 -0.1
v -0.1 5.6 -0.1
v -0.1 5.7 -0.1
v -0.1 6.4 -0.1
v -0.1 7.1 -0.1
v 0 5.6 -0.1
v 0 5.7 -0.1
v 0.1 5.6 -0.1
v 0.1 5.7 -0.1
v 0.2 5.6 -0.1
v 0.2 5.7 -0.1
v 0.2 6.4 -0.1
v 0.2 7.1 -0.1
v -0.4 6 -0.3
v -0.4 6.1 -0.3
v -0.4 6.3 -0.3
v -0.4 6.4 -0.3
v -0.3 5.6 -0.3
v -0.3 5.7 -0.3
v -0.3 5.8 -0.3
v -0.3 6 -0.3
v -0.3 6.1 -0.3
v -0.3 6.3 -0.3
v -0.3 6.4 -0.3
v -0.2 5.6 -0.3
v -0.2 5.7 -0.3
v -0.2 5.8 -0.3
v -0.2 6.3 -0.3
v -0.2 6.4 -0.3
v -0.1 5.9 -0.3
v -0.1 6 -0.3
v 0 5.9 -0.3
v 0 6 -0.3
v 0 6.1 -0.3
v 0 6.4 -0.3
v 0 6.5 -0.3
v 0.1 6 -0.3
v 0.1 6.1 -0.3
v 0.1 6.4 -0.3
v 0.1 6.5 -0.3
v 0.3 5.6 -0.3
v 0.3 5.7 -0.3
v 0.3 6.3 -0.3
v 0.3 6.4 -0.3
v 0.4 5.6 -0.3
v 0.4 5.7 -0.3
v 0.4 6 -0.3
v 0.4 6.1 -0.3
v 0.4 6.3 -0.3
v 0.5 6 -0.3
v 0.5 6.1 -0.3
v -0.3 5.7 -0.4
v -0.3 5.8 -0.4
v -0.3 6.3 -0.4
v -0.3 6.4 -0.4
v -0.2 5.7 -0.4
v -0.2 5.8 -0.4
v -0.2 6.3 -0.4
v -0.2 6.4 -0.4
v -0.1 5.9 -0.4
v -0.1 6 -0.4
v 0 5.9 -0.4
v 0 6 -0.4
v 0 6.1 -0.4
v 0.1 6 -0.4
v 0.1 6.1 -0.4
v 0.3 6.3 -0.4
v 0.3 6.4 -0.4
v 0.4 6.3 -0.4
v 0.4 6.4 -0.4
v -0.3 5.6 0.4
v -0.2 5.6 0.4
v 0 5.6 0.4
v 0.1 5.6 0.4
v -0.3 5.6 0.3
v -0.2 5.6 0.3
v 0 5.6 0.3
v 0.1 5.6 0.3
v 0 5.6 0.0999999
v 0.1 5.6 0.0999999
v -0.1 5.6 -1.19209e-007
v 0 5.6 -1.19209e-007
v 0.1 5.6 -1.19209e-007
v 0.2 5.6 -1.19209e-007
v -0.1 5.6 -0.1
v 0 5.6 -0.1
v 0.1 5.6 -0.1
v 0.2 5.6 -0.1
v -0.3 5.6 -0.2
v -0.2 5.6 -0.2
v 0.3 5.6 -0.2
v 0.4 5.6 -0.2
v -0.3 5.6 -0.3
v -0.2 5.6 -0.3
v 0.3 5.6 -0.3
v 0.4 5.6 -0.3
v -0.3 5.7 0.5
v -0.2 5.7 0.5
v -0.3 5.7 0.4
v -0.2 5.7 0.4
v 0 5.7 0.4
v 0.1 5.7 0.4
v 0.4 5.7 0.4
v 0.5 5.7 0.4
v -0.3 5.7 0.3
v -0.2 5.7 0.3
v 0 5.7 0.3
v 0.1 5.7 0.3
v 0.4 5.7 0.3
v 0.5 5.7 0.3
v -0.4 5.7 0.0999999
v -0.3 5.7 0.0999999
v 0 5.7 0.0999999
v 0.1 5.7 0.0999999
v -0.4 5.7 -1.19209e-007
v -0.3 5.7 -1.19209e-007
v -0.1 5.7 -1.19209e-007
v 0 5.7 -1.19209e-007
v 0.1 5.7 -1.19209e-007
v 0.2 5.7 -1.19209e-007
v -0.1 5.7 -0.1
v 0 5.7 -0.1
v 0.1 5.7 -0.1
v 0.2 5.7 -0.1
v -0.3 5.7 -0.2
v -0.2 5.7 -0.2
v 0.3 5.7 -0.2
v 0.4 5.7 -0.2
v -0.3 5.7 -0.3
v -0.2 5.7 -0.3
v 0.3 5.7 -0.3
v -0.3 5.7 -0.4
v -0.2 5.7 -0.4
v 0.1 5.9 0.5
v 0.2 5.9 0.5
v 0.1 5.9 0.4
v 0.2 5.9 0.4
v -0.4 5.9 0.2
v -0.3 5.9 0.2
v -0.4 5.9 0.0999999
v -0.3 5.9 0.0999999
v -0.4 5.9 -1.19209e-007
v -0.3 5.9 -1.19209e-007
v -0.4 5.9 -0.1
v -0.3 5.9 -0.1
v -0.1 5.9 -0.3
v 0 5.9 -0.3
v -0.1 5.9 -0.4
v 0 5.9 -0.4
v -0.1 6 0.5
v 0 6 0.5
v 0.3 6 0.5
v 0.4 6 0.5
v -0.1 6 0.4
v 0 6 0.4
v 0.3 6 0.4
v 0.4 6 0.4
v 0.4 6 0.0999999
v 0.5 6 0.0999999
v 0.4 6 -1.19209e-007
v 0.5 6 -1.19209e-007
v -0.4 6 -0.2
v -0.3 6 -0.2
v 0.4 6 -0.2
v 0.5 6 -0.2
v -0.4 6 -0.3
v -0.3 6 -0.3
v 0 6 -0.3
v 0.1 6 -0.3
v 0.4 6 -0.3
v 0.5 6 -0.3
v 0 6 -0.4
v 0.1 6 -0.4
v 0.4 6.1 0.2
v 0.5 6.1 0.2
v -0.4 6.1 0.0999999
v -0.3 6.1 0.0999999
v 0.4 6.1 0.0999999
v 0.5 6.1 0.0999999
v -0.4 6.1 -1.19209e-007
v -0.3 6.1 -1.19209e-007
v -0.3 6.3 0.5
v -0.2 6.3 0.5
v -0.4 6.3 0.4
v -0.3 6.3 0.4
v -0.2 6.3 0.4
v 0.4 6.3 0.4
v 0.5 6.3 0.4
v -0.4 6.3 0.3
v -0.3 6.3 0.3
v 0.4 6.3 0.3
v 0.5 6.3 0.3
v -0.4 6.3 -0.2
v -0.3 6.3 -0.2
v -0.4 6.3 -0.3
v -0.3 6.3 -0.3
v -0.2 6.3 -0.3
v 0.3 6.3 -0.3
v 0.4 6.3 -0.3
v -0.3 6.3 -0.4
v -0.2 6.3 -0.4
v 0.3 6.3 -0.4
v 0.4 6.3 -0.4
v -0.3 5.8 0.5
v -0.2 5.8 0.5
v -0.3 5.8 0.4
v -0.2 5.8 0.4
v 0.4 5.8 0.4
v 0.5 5.8 0.4
v 0.4 5.8 0.3
v 0.5 5.8 0.3
v -0.4 5.8 0.0999999
v -0.3 5.8 0.0999999
v -0.4 5.8 -1.19209e-007
v -0.3 5.8 -1.19209e-007
v -0.3 5.8 -0.3
v -0.2 5.8 -0.3
v -0.3 5.8 -0.4
v -0.2 5.8 -0.4
v 0.1 6 0.5
v 0.2 6 0.5
v 0.1 6 0.4
v 0.2 6 0.4
v -0.4 6 0.2
v -0.3 6 0.2
v -0.4 6 0.0999999
v -0.3 6 0.0999999
v -0.4 6 -1.19209e-007
v -0.3 6 -1.19209e-007
v -0.4 6 -0.1
v -0.3 6 -0.1
v -0.1 6 -0.3
v 0 6 -0.3
v -0.1 6 -0.4
v 0 6 -0.4
v 0.3 6.1 0.5
v 0.4 6.1 0.5
v 0.3 6.1 0.4
v 0.4 6.1 0.4
v 0.4 6.1 0.0999999
v 0.5 6.1 0.0999999
v 0.4 6.1 -1.19209e-007
v 0.5 6.1 -1.19209e-007
v -0.4 6.1 -0.2
v -0.3 6.1 -0.2
v 0.4 6.1 -0.2
v 0.5 6.1 -0.2
v -0.4 6.1 -0.3
v -0.3 6.1 -0.3
v 0 6.1 -0.3
v 0.1 6.1 -0.3
v 0.4 6.1 -0.3
v 0.5 6.1 -0.3
v 0 6.1 -0.4
v 0.1 6.1 -0.4
v -0.1 6.2 0.5
v 0 6.2 0.5
v -0.1 6.2 0.4
v 0 6.2 0.4
v 0.4 6.2 0.2
v 0.5 6.2 0.2
v -0.4 6.2 0.0999999
v -0.3 6.2 0.0999999
v 0.4 6.2 0.0999999
v 0.5 6.2 0.0999999
v -0.4 6.2 -1.19209e-007
v -0.3 6.2 -1.19209e-007
v -0.3 6.4 0.5
v -0.2 6.4 0.5
v -0.4 6.4 0.4
v -0.3 6.4 0.4
v -0.2 6.4 0.4
v 0.4 6.4 0.4
v 0.5 6.4 0.4
v -0.4 6.4 0.3
v -0.3 6.4 0.3
v -0.2 6.4 0.3
v 0.4 6.4 0.3
v 0.5 6.4 0.3
v -0.1 6.4 0.2
v 0.2 6.4 0.2
v 0.3 6.4 0.0999999
v 0.4 6.4 0.0999999
v 0.3 6.4 -1.19209e-007
v 0.4 6.4 -1.19209e-007
v -0.1 6.4 -0.1
v 0.2 6.4 -0.1
v -0.4 6.4 -0.2
v -0.3 6.4 -0.2
v 0 6.4 -0.2
v 0.1 6.4 -0.2
v -0.4 6.4 -0.3
v -0.3 6.4 -0.3
v -0.2 6.4 -0.3
v 0 6.4 -0.3
v 0.1 6.4 -0.3
v 0.3 6.4 -0.3
v 0.4 6.4 -0.3
v -0.3 6.4 -0.4
v -0.2 6.4 -0.4
v 0.3 6.4 -0.4
v 0.4 6.4 -0.4
v -0.3 6.5 0.4
v -0.2 6.5 0.4
v -0.3 6.5 0.3
v -0.2 6.5 0.3
v 0.3 6.5 0.0999999
v 0.4 6.5 0.0999999
v 0.3 6.5 -1.19209e-007
v 0.4 6.5 -1.19209e-007
v 0 6.5 -0.2
v 0.1 6.5 -0.2
v 0 6.5 -0.3
v 0.1 6.5 -0.3
v -0.1 7.1 0.2
v 0.2 7.1 0.2
v -0.1 7.1 -0.1
v 0.2 7.1 -0.1

# faces
f 3/3/1 2/3/1 1/3/1
f 4/3/1 2/3/1 3/3/1
f 9/3/1 6/3/1 5/3/1
f 10/3/1 6/3/1 9/3/1
f 11/3/1 8/3/1 7/3/1
f 12/3/1 8/3/1 11/3/1
f 17/3/1 14/3/1 13/3/1
f 18/3/1 14/3/1 17/3/1
f 19/3/1 16/3/1 15/3/1
f 20/3/1 16/3/1 19/3/1
f 25/3/1 22/3/1 21/3/1
f 26/3/1 22/3/1 25/3/1
f 27/3/1 24/3/1 23/3/1
f 28/3/1 24/3/1 27/3/1
f 34/3/1 30/3/1 29/3/1
f 35/3/1 30/3/1 34/3/1
f 38/3/1 32/3/1 31/3/1
f 39/3/1 32/3/1 38/3/1
f 41/3/1 34/3/1 33/3/1
f 42/1/1 36/1/1 35/1/1
f 42/3/1 34/3/1 41/3/1
f 42/1/1 35/1/1 34/1/1
f 43/1/1 36/1/1 42/1/1
f 44/1/1 39/1/1 38/1/1
f 44/1/1 38/1/1 37/1/1
f 45/3/1 40/3/1 39/3/1
f 45/1/1 39/1/1 44/1/1
f 46/3/1 40/3/1 45/3/1
f 47/1/1 44/1/1 43/1/1
f 47/1/1 43/1/1 42/1/1
f 47/1/1 45/1/1 44/1/1
f 48/1/1 45/1/1 47/1/1
f 49/1/1 45/1/1 48/1/1
f 50/1/1 45/1/1 49/1/1
f 51/1/1 47/1/1 42/1/1
f 52/1/1 49/1/1 48/1/1
f 53/1/1 49/1/1 52/1/1
f 54/1/1 45/1/1 50/1/1
f 55/1/1 45/1/1 54/1/1
f 56/1/1 45/1/1 55/1/1
f 57/1/1 53/1/1 52/1/1
f 57/1/1 52/1/1 51/1/1
f 57/1/1 55/1/1 54/1/1
f 57/1/1 54/1/1 53/1/1
f 58/1/1 55/1/1 57/1/1
f 59/1/1 55/1/1 58/1/1
f 61/1/1 57/1/1 51/1/1
f 62/1/1 60/1/1 59/1/1
f 62/1/1 59/1/1 58/1/1
f 64/1/1 51/1/1 42/1/1
f 64/1/1 62/1/1 61/1/1
f 64/1/1 61/1/1 51/1/1
f 65/1/1 62/1/1 64/1/1
f 66/1/1 60/1/1 62/1/1
f 66/1/1 62/1/1 65/1/1
f 67/1/1 60/1/1 66/1/1
f 69/3/1 64/3/1 63/3/1
f 70/3/1 64/3/1 69/3/1
f 71/1/1 66/1/1 65/1/1
f 72/1/1 66/1/1 71/1/1
f 73/3/1 68/3/1 67/3/1
f 74/3/1 68/3/1 73/3/1
f 75/3/1 71/3/1 70/3/1
f 76/3/1 71/3/1 75/3/1
f 79/3/1 78/3/1 77/3/1
f 80/3/1 78/3/1 79/3/1
f 85/3/1 82/3/1 81/3/1
f 86/3/1 82/3/1 85/3/1
f 87/3/1 84/3/1 83/3/1
f 88/3/1 84/3/1 87/3/1
f 91/2/1 90/2/1 89/2/1
f 92/2/1 90/2/1 91/2/1
f 97/3/1 94/3/1 93/3/1
f 98/3/1 94/3/1 97/3/1
f 99/3/1 96/3/1 95/3/1
f 100/3/1 96/3/1 99/3/1
f 103/3/1 102/3/1 101/3/1
f 104/3/1 102/3/1 103/3/1
f 107/3/1 106/3/1 105/3/1
f 108/3/1 106/3/1 107/3/1
f 111/3/1 110/3/1 109/3/1
f 112/3/1 110/3/1 111/3/1
f 115/3/1 114/3/1 113/3/1
f 116/3/1 114/3/1 115/3/1
f 119/3/1 118/3/1 117/3/1
f 120/3/1 118/3/1 119/3/1
f 123/3/1 122/3/1 121/3/1
f 124/3/1 122/3/1 123/3/1
f 129/3/1 126/3/1 125/3/1
f 130/3/1 126/3/1 129/3/1
f 131/3/1 128/3/1 127/3/1
f 132/3/1 128/3/1 131/3/1
f 133/3/2 134/3/2 138/3/2
f 138/3/2 134/3/2 139/3/2
f 135/3/2 136/3/2 140/3/2
f 140/3/2 136/3/2 141/3/2
f 137/3/2 138/3/2 143/3/2
f 143/3/2 138/3/2 144/3/2
f 141/3/2 142/3/2 145/3/2
f 145/3/2 142/3/2 146/3/2
f 147/3/2 148/3/2 151/3/2
f 151/3/2 148/3/2 152/3/2
f 149/3/2 150/3/2 154/3/2
f 154/3/2 150/3/2 155/3/2
f 152/3/2 153/3/2 156/3/2
f 156/3/2 153/3/2 157/3/2
f 158/3/2 159/3/2 160/3/2
f 160/3/2 159/3/2 161/3/2
f 162/3/2 163/3/2 166/3/2
f 166/3/2 163/3/2 167/3/2
f 164/3/2 165/3/2 168/3/2
f 168/3/2 165/3/2 169/3/2
f 170/3/2 171/3/2 174/3/2
f 174/3/2 171/3/2 175/3/2
f 172/3/2 173/3/2 176/3/2
f 176/3/2 173/3/2 177/3/2
f 178/3/2 179/3/2 180/3/2
f 180/3/2 179/3/2 181/3/2
f 182/3/2 183/3/2 184/3/2
f 184/3/2 183/3/2 185/3/2
f 186/3/2 187/3/2 188/3/2
f 188/3/2 187/3/2 189/3/2
f 190/3/2 191/3/2 192/3/2
f 192/3/2 191/3/2 193/3/2
f 194/2/2 195/2/2 196/2/2
f 196/2/2 195/2/2 197/2/2
f 198/3/2 199/3/2 201/3/2
f 201/3/2 199/3/2 202/3/2
f 200/1/2 201/1/2 204/1/2
f 201/1/2 202/1/2 204/1/2
f 203/1/2 204/1/2 206/1/2
f 204/1/2 202/1/2 207/1/2
f 206/1/2 204/1/2 207/1/2
f 207/1/2 202/1/2 208/1/2
f 208/1/2 202/1/2 209/1/2
f 209/1/2 202/1/2 210/1/2
f 205/3/2 206/3/2 211/3/2
f 206/1/2 207/1/2 212/1/2
f 211/3/2 206/3/2 212/3/2
f 212/1/2 207/1/2 213/1/2
f 213/1/2 207/1/2 214/1/2
f 208/1/2 209/1/2 215/1/2
f 215/1/2 209/1/2 216/1/2
f 212/1/2 213/1/2 218/1/2
f 216/1/2 217/1/2 219/1/2
f 215/1/2 216/1/2 219/1/2
f 214/1/2 215/1/2 219/1/2
f 212/1/2 218/1/2 220/1/2
f 218/1/2 219/1/2 220/1/2
f 220/1/2 219/1/2 221/1/2
f 219/1/2 217/1/2 222/1/2
f 221/1/2 219/1/2 222/1/2
f 221/1/2 222/1/2 224/1/2
f 224/1/2 222/1/2 225/1/2
f 225/1/2 222/1/2 226/1/2
f 222/3/2 223/3/2 227/3/2
f 226/1/2 222/1/2 227/1/2
f 227/3/2 223/3/2 228/3/2
f 225/3/2 226/3/2 229/3/2
f 229/3/2 226/3/2 230/3/2
f 231/3/2 232/3/2 233/3/2
f 233/3/2 232/3/2 234/3/2
f 235/3/2 236/3/2 240/3/2
f 240/3/2 236/3/2 241/3/2
f 237/3/2 238/3/2 242/3/2
f 242/3/2 238/3/2 243/3/2
f 239/3/2 240/3/2 244/3/2
f 244/3/2 240/3/2 245/3/2
f 246/3/2 247/3/2 248/3/2
f 248/3/2 247/3/2 249/3/2
f 254/3/3 251/3/3 250/3/3
f 255/3/3 251/3/3 254/3/3
f 256/3/3 253/3/3 252/3/3
f 257/3/3 253/3/3 256/3/3
f 260/3/3 259/3/3 258/3/3
f 261/3/3 259/3/3 260/3/3
f 264/3/3 263/3/3 262/3/3
f 265/3/3 263/3/3 264/3/3
f 268/3/3 267/3/3 266/3/3
f 269/3/3 267/3/3 268/3/3
f 275/3/3 271/3/3 270/3/3
f 276/3/3 271/3/3 275/3/3
f 278/3/3 273/3/3 272/3/3
f 279/3/3 273/3/3 278/3/3
f 280/1/3 275/1/3 274/1/3
f 281/1/3 275/1/3 280/1/3
f 282/3/3 277/3/3 276/3/3
f 283/3/3 277/3/3 282/3/3
f 284/1/3 281/1/3 280/1/3
f 284/1/3 282/1/3 281/1/3
f 284/1/3 280/1/3 279/1/3
f 285/1/3 282/1/3 284/1/3
f 287/1/3 284/1/3 279/1/3
f 288/1/3 284/1/3 287/1/3
f 289/1/3 282/1/3 285/1/3
f 290/3/3 287/3/3 286/3/3
f 291/1/3 288/1/3 287/1/3
f 291/3/3 287/3/3 290/3/3
f 291/1/3 289/1/3 288/1/3
f 292/1/3 289/1/3 291/1/3
f 293/1/3 289/1/3 292/1/3
f 294/1/3 292/1/3 291/1/3
f 295/1/3 289/1/3 293/1/3
f 296/1/3 289/1/3 295/1/3
f 296/1/3 295/1/3 294/1/3
f 297/1/3 289/1/3 296/1/3
f 298/1/3 294/1/3 291/1/3
f 298/1/3 296/1/3 294/1/3
f 299/1/3 296/1/3 298/1/3
f 300/1/3 296/1/3 299/1/3
f 301/1/3 289/1/3 297/1/3
f 302/1/3 282/1/3 289/1/3
f 302/1/3 289/1/3 301/1/3
f 303/1/3 282/1/3 302/1/3
f 304/3/3 299/3/3 298/3/3
f 305/3/3 299/3/3 304/3/3
f 306/3/3 303/3/3 302/3/3
f 307/3/3 303/3/3 306/3/3
f 310/3/3 309/3/3 308/3/3
f 311/3/3 309/3/3 310/3/3
f 314/2/3 313/2/3 312/2/3
f 315/2/3 313/2/3 314/2/3
f 318/3/3 317/3/3 316/3/3
f 319/3/3 317/3/3 318/3/3
f 324/3/3 321/3/3 320/3/3
f 325/3/3 321/3/3 324/3/3
f 326/3/3 323/3/3 322/3/3
f 327/3/3 323/3/3 326/3/3
f 330/3/3 329/3/3 328/3/3
f 331/3/3 329/3/3 330/3/3
f 336/3/3 333/3/3 332/3/3
f 337/3/3 333/3/3 336/3/3
f 338/3/3 335/3/3 334/3/3
f 339/3/3 335/3/3 338/3/3
f 342/3/3 341/3/3 340/3/3
f 343/3/3 341/3/3 342/3/3
f 346/3/3 345/3/3 344/3/3
f 347/3/3 345/3/3 346/3/3
f 350/3/3 349/3/3 348/3/3
f 351/3/3 349/3/3 350/3/3
f 358/3/3 353/3/3 352/3/3
f 359/3/3 353/3/3 358/3/3
f 360/3/3 355/3/3 354/3/3
f 361/3/3 355/3/3 360/3/3
f 362/3/3 357/3/3 356/3/3
f 363/3/3 357/3/3 362/3/3
f 366/3/3 365/3/3 364/3/3
f 367/3/3 365/3/3 366/3/3
f 370/3/3 369/3/3 368/3/3
f 371/3/3 369/3/3 370/3/3
f 374/3/3 373/3/3 372/3/3
f 375/3/3 373/3/3 374/3/3
f 376/3/4 377/3/4 380/3/4
f 380/3/4 377/3/4 381/3/4
f 378/3/4 379/3/4 383/3/4
f 383/3/4 379/3/4 384/3/4
f 381/3/4 382/3/4 385/3/4
f 385/3/4 382/3/4 386/3/4
f 387/3/4 388/3/4 389/3/4
f 389/3/4 388/3/4 390/3/4
f 391/3/4 392/3/4 395/3/4
f 395/3/4 392/3/4 396/3/4
f 393/3/4 394/3/4 397/3/4
f 397/3/4 394/3/4 398/3/4
f 399/3/4 400/3/4 401/3/4
f 401/3/4 400/3/4 402/3/4
f 403/3/4 404/3/4 405/3/4
f 405/3/4 404/3/4 406/3/4
f 407/3/4 408/3/4 411/3/4
f 411/3/4 408/3/4 412/3/4
f 409/3/4 410/3/4 413/3/4
f 413/3/4 410/3/4 414/3/4
f 415/3/4 416/3/4 417/3/4
f 417/3/4 416/3/4 418/3/4
f 419/3/4 420/3/4 423/3/4
f 423/3/4 420/3/4 424/3/4
f 421/3/4 422/3/4 425/3/4
f 425/3/4 422/3/4 426/3/4
f 427/3/4 428/3/4 429/3/4
f 429/3/4 428/3/4 430/3/4
f 431/3/4 432/3/4 435/3/4
f 435/3/4 432/3/4 436/3/4
f 437/3/4 438/3/4 439/3/4
f 439/3/4 438/3/4 440/3/4
f 433/2/4 434/2/4 441/2/4
f 441/2/4 434/2/4 442/2/4
f 443/3/4 444/3/4 450/3/4
f 450/3/4 444/3/4 451/3/4
f 445/3/4 446/3/4 452/3/4
f 452/3/4 446/3/4 453/3/4
f 447/3/4 448/3/4 454/3/4
f 454/3/4 448/3/4 455/3/4
f 450/1/4 451/1/4 456/1/4
f 449/1/4 450/1/4 456/1/4
f 451/1/4 452/1/4 456/1/4
f 456/1/4 452/1/4 457/1/4
f 457/1/4 458/1/4 459/1/4
f 456/1/4 457/1/4 459/1/4
f 455/1/4 456/1/4 459/1/4
f 459/1/4 458/1/4 460/1/4
f 455/1/4 459/1/4 461/1/4
f 460/1/4 458/1/4 462/1/4
f 462/1/4 458/1/4 463/1/4
f 463/1/4 458/1/4 464/1/4
f 461/1/4 462/1/4 466/1/4
f 463/1/4 464/1/4 467/1/4
f 464/3/4 465/3/4 468/3/4
f 467/1/4 464/1/4 468/1/4
f 468/3/4 465/3/4 469/3/4
f 461/1/4 466/1/4 471/1/4
f 455/1/4 461/1/4 471/1/4
f 467/1/4 468/1/4 471/1/4
f 466/1/4 467/1/4 471/1/4
f 471/1/4 468/1/4 472/1/4
f 472/1/4 468/1/4 473/1/4
f 470/3/4 471/3/4 474/3/4
f 471/1/4 472/1/4 475/1/4
f 474/3/4 471/3/4 475/3/4
f 475/1/4 472/1/4 476/1/4
f 476/1/4 472/1/4 477/1/4
f 477/1/4 472/1/4 478/1/4
f 476/3/4 477/3/4 479/3/4
f 479/3/4 477/3/4 480/3/4
f 481/3/4 482/3/4 485/3/4
f 485/3/4 482/3/4 486/3/4
f 483/3/4 484/3/4 487/3/4
f 487/3/4 484/3/4 488/3/4
f 489/3/4 490/3/4 491/3/4
f 491/3/4 490/3/4 492/3/4
f 492/3/4 493/3/4 494/3/4
f 494/3/4 493/3/4 495/3/4
f 496/3/4 497/3/4 498/3/4
f 498/3/4 497/3/4 499/3/4
f 504/3/5 501/3/5 500/3/5
f 505/3/5 501/3/5 504/3/5
f 506/3/5 503/3/5 502/3/5
f 507/3/5 503/3/5 506/3/5
f 511/3/5 509/3/5 508/3/5
f 512/3/5 509/3/5 511/3/5
f 514/3/5 511/3/5 510/3/5
f 515/3/5 511/3/5 514/3/5
f 516/3/5 513/3/5 512/3/5
f 517/3/5 513/3/5 516/3/5
f 522/3/5 519/3/5 518/3/5
f 523/3/5 519/3/5 522/3/5
f 524/3/5 521/3/5 520/3/5
f 525/3/5 521/3/5 524/3/5
f 528/3/5 527/3/5 526/3/5
f 529/3/5 527/3/5 528/3/5
f 535/1/5 530/1/5 529/1/5
f 536/1/5 530/1/5 535/1/5
f 537/1/5 532/1/5 531/1/5
f 538/3/5 533/3/5 532/3/5
f 538/1/5 532/1/5 537/1/5
f 539/3/5 533/3/5 538/3/5
f 541/1/5 537/1/5 536/1/5
f 541/1/5 536/1/5 535/1/5
f 541/1/5 538/1/5 537/1/5
f 541/1/5 535/1/5 534/1/5
f 542/1/5 538/1/5 541/1/5
f 543/1/5 538/1/5 542/1/5
f 544/3/5 541/3/5 540/3/5
f 545/1/5 542/1/5 541/1/5
f 545/3/5 541/3/5 544/3/5
f 546/1/5 542/1/5 545/1/5
f 547/1/5 542/1/5 546/1/5
f 548/1/5 538/1/5 543/1/5
f 549/1/5 538/1/5 548/1/5
f 550/1/5 546/1/5 545/1/5
f 551/1/5 548/1/5 547/1/5
f 552/1/5 548/1/5 551/1/5
f 553/1/5 538/1/5 549/1/5
f 554/1/5 552/1/5 551/1/5
f 554/1/5 553/1/5 552/1/5
f 554/1/5 550/1/5 545/1/5
f 554/1/5 551/1/5 550/1/5
f 555/1/5 553/1/5 554/1/5
f 556/1/5 538/1/5 553/1/5
f 556/1/5 553/1/5 555/1/5
f 557/1/5 538/1/5 556/1/5
f 559/1/5 556/1/5 555/1/5
f 560/1/5 556/1/5 559/1/5
f 561/3/5 559/3/5 558/3/5
f 562/3/5 559/3/5 561/3/5
f 565/3/5 564/3/5 563/3/5
f 566/3/5 564/3/5 565/3/5
f 569/3/5 568/3/5 567/3/5
f 570/3/5 568/3/5 569/3/5
f 573/3/5 572/3/5 571/3/5
f 574/3/5 572/3/5 573/3/5
f 577/3/5 576/3/5 575/3/5
f 578/3/5 576/3/5 577/3/5
f 583/3/5 580/3/5 579/3/5
f 584/3/5 580/3/5 583/3/5
f 585/3/5 582/3/5 581/3/5
f 586/3/5 582/3/5 585/3/5
f 589/3/5 588/3/5 587/3/5
f 590/3/5 588/3/5 589/3/5
f 595/3/5 592/3/5 591/3/5
f 596/3/5 592/3/5 595/3/5
f 599/3/5 594/3/5 593/3/5
f 600/3/5 594/3/5 599/3/5
f 601/3/5 598/3/5 597/3/5
f 602/3/5 598/3/5 601/3/5
f 607/3/5 604/3/5 603/3/5
f 608/3/5 604/3/5 607/3/5
f 609/3/5 606/3/5 605/3/5
f 610/3/5 606/3/5 609/3/5
f 614/3/5 612/3/5 611/3/5
f 615/3/5 612/3/5 614/3/5
f 618/3/5 614/3/5 613/3/5
f 619/3/5 614/3/5 618/3/5
f 620/3/5 617/3/5 616/3/5
f 621/3/5 617/3/5 620/3/5
f 624/3/5 623/3/5 622/3/5
f 625/3/5 623/3/5 624/3/5
f 629/3/5 626/3/5 625/3/5
f 630/3/5 626/3/5 629/3/5
f 631/3/5 628/3/5 627/3/5
f 632/3/5 628/3/5 631/3/5
f 633/3/6 634/3/6 635/3/6
f 635/3/6 634/3/6 636/3/6
f 637/3/6 638/3/6 639/3/6
f 639/3/6 638/3/6 640/3/6
f 641/3/6 642/3/6 643/3/6
f 643/3/6 642/3/6 644/3/6
f 645/3/6 646/3/6 647/3/6
f 647/3/6 646/3/6 648/3/6
f 649/3/6 650/3/6 651/3/6
f 651/3/6 650/3/6 652/3/6
f 653/3/6 654/3/6 655/3/6
f 655/3/6 654/3/6 656/3/6
f 657/3/6 658/3/6 659/3/6
f 659/3/6 658/3/6 660/3/6
f 661/3/6 662/3/6 663/3/6
f 663/3/6 662/3/6 664/3/6
f 665/3/6 666/3/6 667/3/6
f 667/3/6 666/3/6 668/3/6
f 669/3/6 670/3/6 671/3/6
f 671/3/6 670/3/6 672/3/6
f 673/3/6 674/3/6 677/3/6
f 677/3/6 674/3/6 678/3/6
f 675/3/6 676/3/6 681/3/6
f 681/3/6 676/3/6 682/3/6
f 679/3/6 680/3/6 683/3/6
f 683/3/6 680/3/6 684/3/6
f 685/3/6 686/3/6 687/3/6
f 687/3/6 686/3/6 688/3/6
f 689/3/6 690/3/6 693/3/6
f 693/3/6 690/3/6 694/3/6
f 691/3/6 692/3/6 695/3/6
f 695/3/6 692/3/6 696/3/6
f 697/3/6 698/3/6 700/3/6
f 700/3/6 698/3/6 701/3/6
f 699/3/6 700/3/6 704/3/6
f 704/3/6 700/3/6 705/3/6
f 701/1/6 702/1/6 706/1/6
f 702/3/6 703/3/6 707/3/6
f 706/1/6 702/1/6 707/1/6
f 707/3/6 703/3/6 708/3/6
f 705/1/6 706/1/6 709/1/6
f 706/1/6 707/1/6 709/1/6
f 709/1/6 707/1/6 710/1/6
f 710/1/6 707/1/6 711/1/6
f 711/1/6 707/1/6 712/1/6
f 710/1/6 711/1/6 713/1/6
f 705/1/6 709/1/6 715/1/6
f 713/1/6 714/1/6 716/1/6
f 710/1/6 713/1/6 716/1/6
f 705/1/6 715/1/6 718/1/6
f 715/1/6 716/1/6 718/1/6
f 718/1/6 716/1/6 719/1/6
f 719/1/6 716/1/6 720/1/6
f 717/3/6 718/3/6 721/3/6
f 718/1/6 719/1/6 722/1/6
f 721/3/6 718/3/6 722/3/6
f 722/1/6 719/1/6 723/1/6
f 723/1/6 719/1/6 724/1/6
f 720/1/6 716/1/6 725/1/6
f 716/1/6 714/1/6 726/1/6
f 725/1/6 716/1/6 726/1/6
f 726/1/6 714/1/6 727/1/6
f 722/3/6 723/3/6 728/3/6
f 728/3/6 723/3/6 729/3/6
f 726/3/6 727/3/6 730/3/6
f 730/3/6 727/3/6 731/3/6
f 732/3/6 733/3/6 734/3/6
f 734/3/6 733/3/6 735/3/6
f 736/3/6 737/3/6 738/3/6
f 738/3/6 737/3/6 739/3/6
f 740/3/6 741/3/6 742/3/6
f 742/3/6 741/3/6 743/3/6
f 744/2/6 745/2/6 746/2/6
f 746/2/6 745/2/6 747/2/6
